<?xml version="1.0" encoding="UTF-8"?>
<svg id="Layer_1" data-name="Layer 1" xmlns="http://www.w3.org/2000/svg" viewBox="0 0 168 204.5">
  <path d="M142.5,87.42v-34.42h0c-.07-2.57-.77-14.35-7.31-26.14C128.39,14.61,114,0,84,0S38.88,14.58,31.97,26.81c-7.39,13.07-7.47,26.14-7.47,26.69v34.18C10.4,91.54,0,104.46,0,119.77v51.46c0,18.34,14.92,33.27,33.27,33.27h101.46c18.34,0,33.27-14.92,33.27-33.27v-51.46c0-15.67-10.89-28.83-25.5-32.34ZM39.5,53.53c0-.1.16-10.15,5.8-19.81,7.25-12.42,20.27-18.72,38.7-18.72s30.72,6.28,37.81,18.68c5.54,9.68,5.69,19.75,5.69,19.85v32.97H39.5v-32.97ZM153,171.23c0,10.07-8.19,18.27-18.27,18.27H33.27c-10.07,0-18.27-8.2-18.27-18.27v-51.46c0-10.07,8.19-18.27,18.27-18.27h101.46c10.07,0,18.27,8.2,18.27,18.27v51.46Z"/>
  <path d="M83.75,119c-9.11,0-16.5,7.39-16.5,16.5,0,6.61,3.89,12.29,9.5,14.93v20.57h14v-20.57c5.61-2.64,9.5-8.32,9.5-14.93,0-9.11-7.39-16.5-16.5-16.5Z"/>
</svg>